<svg xmlns="http://www.w3.org/2000/svg" viewBox="0 0 64 64"><defs><style>.cls-1{isolation:isolate;}.cls-2{fill:#db9d53;}.cls-3{fill:#fea621;}.cls-4,.cls-9{fill:#fff;}.cls-5{fill:#aa3f35;}.cls-6{fill:none;stroke:#000;stroke-linecap:round;stroke-linejoin:round;stroke-width:2px;}.cls-7{opacity:0.25;mix-blend-mode:multiply;}.cls-8,.cls-9{mix-blend-mode:overlay;}</style></defs><title>Icon Color</title><g class="cls-1"><g id="Layer_1" data-name="Layer 1"><g id="Vector"><path class="cls-2" d="M63.38,38.47V51.76H.63V38.47H28.11v4.82a2.87,2.87,0,0,0,5.74,0V41.82a2.84,2.84,0,0,0,2.5,1.5,2.88,2.88,0,0,0,2.87-2.87v-2Z"/><path class="cls-3" d="M63.38,38.47H39.22v2a2.88,2.88,0,0,1-2.87,2.87,2.84,2.84,0,0,1-2.5-1.5v1.47a2.87,2.87,0,0,1-5.74,0V38.47H.63L32,12.24A33.29,33.29,0,0,1,51.2,19,33.65,33.65,0,0,1,63.38,38.47Z"/><path class="cls-4" d="M58,34.42H17.37a2.07,2.07,0,0,1-1.32-3.65L29,20a6,6,0,0,0-.14,1.35,6.91,6.91,0,1,0,13.81,0,6.61,6.61,0,0,0-.69-3,28.35,28.35,0,0,1,6.81,3.86A29.13,29.13,0,0,1,58,34.42Z"/><path class="cls-5" d="M42.65,21.31a6.91,6.91,0,1,1-13.81,0A6,6,0,0,1,29,20a6.9,6.9,0,0,1,13-1.64A6.61,6.61,0,0,1,42.65,21.31Z"/></g><g id="Line"><path class="cls-6" d="M63.38,38.47V51.76H.63V38.47H28.11v4.82a2.87,2.87,0,0,0,5.74,0V41.82a2.84,2.84,0,0,0,2.5,1.5,2.88,2.88,0,0,0,2.87-2.87v-2Z"/><path class="cls-6" d="M63.38,38.47H39.22v2a2.88,2.88,0,0,1-2.87,2.87,2.84,2.84,0,0,1-2.5-1.5v1.47a2.87,2.87,0,0,1-5.74,0V38.47H.63L32,12.24A33.29,33.29,0,0,1,51.2,19,33.65,33.65,0,0,1,63.38,38.47Z"/><path d="M44.64,21.83a25.82,25.82,0,0,1,2.91,1.94,26.81,26.81,0,0,1,7.27,8.65H17.34a.1.1,0,0,1,0-.12L27.25,24a8.91,8.91,0,0,0,17.39-2.18M42,18.32a6.61,6.61,0,0,1,.69,3,6.91,6.91,0,1,1-13.81,0A6,6,0,0,1,29,20L16.05,30.77a2.07,2.07,0,0,0,1.32,3.65H58a29.13,29.13,0,0,0-9.19-12.24A28.35,28.35,0,0,0,42,18.32Z"/><path d="M35.74,16.41a5,5,0,0,1,4.44,2.81,4.68,4.68,0,0,1,.47,2.09,4.91,4.91,0,1,1-9.81,0,3.49,3.49,0,0,1,.08-.86l0-.06v-.05a4.87,4.87,0,0,1,4.79-3.93m0-2A6.88,6.88,0,0,0,29,20a6,6,0,0,0-.14,1.35,6.91,6.91,0,1,0,13.81,0,6.61,6.61,0,0,0-.69-3,6.88,6.88,0,0,0-6.22-3.91Z"/></g><g id="Shadow" class="cls-7"><path d="M51.2,19A33.29,33.29,0,0,0,32,12.24l-3.76,3.14a32,32,0,0,1,6,3.66A33.65,33.65,0,0,1,46.45,38.47V51.76H63.38V38.47A33.65,33.65,0,0,0,51.2,19Z"/></g><g id="Highligth" class="cls-8"><path class="cls-9" d="M45.16,15.37A33.64,33.64,0,0,0,32,12.24L.63,38.47V51.76H17.52V38.47Z"/></g></g></g></svg>