<svg xmlns="http://www.w3.org/2000/svg" viewBox="0 0 24 24"><path d="M12,1.006A10.994,10.994,0,1,0,22.994,12,11.007,11.007,0,0,0,12,1.006Zm0,20.958A9.964,9.964,0,1,1,21.964,12,9.976,9.976,0,0,1,12,21.964Z"/><path d="M12,3.754A8.246,8.246,0,1,0,20.246,12,8.255,8.255,0,0,0,12,3.754Zm0,15.461A7.215,7.215,0,1,1,19.215,12,7.223,7.223,0,0,1,12,19.215Z"/><path d="M15,8.172a2.762,2.762,0,0,0-3,.64,2.767,2.767,0,0,0-3-.64,3.063,3.063,0,0,0-1.725,2.043,2.686,2.686,0,0,0,.463,2.3c.717.93,3.79,3.684,3.92,3.8a.514.514,0,0,0,.688,0c.13-.117,3.2-2.871,3.92-3.8a2.686,2.686,0,0,0,.463-2.3A3.063,3.063,0,0,0,15,8.172Zm.446,3.714A47.019,47.019,0,0,1,12,15.238a46.779,46.779,0,0,1-3.447-3.352,1.661,1.661,0,0,1-.279-1.424A2.039,2.039,0,0,1,9.428,9.108a1.941,1.941,0,0,1,2.174.759.533.533,0,0,0,.8,0c.011-.012,1.062-1.268,2.174-.759a2.039,2.039,0,0,1,1.154,1.354A1.664,1.664,0,0,1,15.448,11.886Z"/></svg>