<?xml version="1.0" encoding="iso-8859-1"?>
<!-- Generator: Adobe Illustrator 22.0.1, SVG Export Plug-In . SVG Version: 6.00 Build 0)  -->
<svg version="1.1" id="Icons" xmlns="http://www.w3.org/2000/svg" xmlns:xlink="http://www.w3.org/1999/xlink" x="0px" y="0px"
	 viewBox="0 0 512 512" style="enable-background:new 0 0 512 512;" xml:space="preserve">
<g>
	<path id="XMLID_800_" style="fill:#29A4FC;" d="M512,255.904c0,70.692-28.654,134.692-74.981,181.019S326.692,511.904,256,511.904
		S121.308,483.25,74.981,436.924S0,326.597,0,255.904S28.654,121.212,74.981,74.885S185.308-0.096,256-0.096
		s134.692,28.654,181.019,74.981S512,185.212,512,255.904z"/>
	<g id="XMLID_826_">
		<path id="XMLID_923_" style="fill:#FB80A5;" d="M497.71,340.424c-17.455,49.925-49.942,92.795-92.036,123.184
			S311.88,511.904,256,511.904s-107.58-17.908-149.674-48.296S31.745,390.349,14.29,340.424H256H497.71z"/>
		<g id="XMLID_860_">
			<path id="XMLID_889_" style="fill:#E5750F;" d="M283.965,59.28v5v5c0,2.28-0.923,4.342-2.415,5.835s-3.555,2.415-5.835,2.415
				h-74.75h-74.75c-2.28,0-4.342-0.923-5.835-2.415s-2.415-3.555-2.415-5.835v-5v-5c0-2.28,0.923-4.342,2.415-5.835
				s3.555-2.415,5.835-2.415h74.75h74.75c2.28,0,4.342,0.923,5.835,2.415S283.965,57,283.965,59.28z"/>
			<path id="XMLID_888_" style="fill:#FC840A;" d="M283.965,59.28v5v5c0,2.28-0.923,4.342-2.415,5.835s-3.555,2.415-5.835,2.415
				h-57.25h-57.25c-2.28,0-4.342-0.923-5.835-2.415c-1.492-1.493-2.415-3.555-2.415-5.835v-5v-5c0-2.28,0.923-4.342,2.415-5.835
				c1.493-1.493,3.555-2.415,5.835-2.415h57.25h57.25c2.28,0,4.342,0.923,5.835,2.415S283.965,57,283.965,59.28z"/>
			<path id="XMLID_887_" style="fill:#B95E10;" d="M233.465,35.53v7.75v7.75h-32.5h-32.5v-7.75v-7.75c0-2.625,1.062-5,2.781-6.719
				s4.094-2.781,6.719-2.781h23h23c2.625,0,5,1.062,6.719,2.781S233.465,32.905,233.465,35.53z"/>
			<path id="XMLID_886_" style="fill:#D16D11;" d="M233.465,35.53v7.75v7.75h-22.5h-22.5v-7.75v-7.75c0-2.625,1.062-5,2.781-6.719
				s4.094-2.781,6.719-2.781h13h13c2.625,0,5,1.062,6.719,2.781S233.465,32.905,233.465,35.53z"/>
			<path id="XMLID_882_" style="fill:#D0F4FA;" d="M297.47,95.364h-11.75h-11.75v-8.915v-8.915h-72h-72v10.04v10.04h-14.02h-14.02
				c-1.275,0-2.295,0.713-2.82,1.691s-0.555,2.224,0.15,3.289l15.355,23.22l15.355,23.22v57.75v57.75
				c0,6.93,2.472,13.282,6.584,18.221s9.861,8.464,16.416,9.739c0.825,0.165,1.665,0.293,2.516,0.381s1.714,0.139,2.584,0.149
				c0.065,0.005,0.132,0.008,0.2,0.009s0.135,0.001,0.2,0.001h43.5h43.5c0.525,0,1.045-0.015,1.56-0.044s1.025-0.071,1.53-0.126
				c7.145-0.77,13.497-4.18,18.064-9.234s7.346-11.751,7.346-19.096v-20.25v-20.25h11.75h11.75c9.51,0,18.135-3.87,24.383-10.118
				c6.247-6.248,10.117-14.873,10.117-24.382v-29.835v-29.835c0-9.51-3.87-18.135-10.117-24.382S306.98,95.364,297.47,95.364z
				 M313.97,189.534c0,4.55-1.85,8.675-4.837,11.662s-7.112,4.838-11.663,4.838h-11.75h-11.75v-46.335v-46.335h11.75h11.75
				c4.55,0,8.675,1.853,11.663,4.841s4.837,7.114,4.837,11.659v29.835V189.534z"/>
			<path id="XMLID_881_" style="fill:#95D8FD;" d="M136.632,264.028v-52.167v-52.167h8.167h8.167v-41.082V77.53h-11.5h-11.5v93.5
				v93.5c0,6.93,2.473,13.282,6.584,18.221s9.861,8.464,16.416,9.739v-7.064v-7.064h-1h-1c-3.958,0-7.541-1.604-10.135-4.198
				C138.236,271.569,136.632,267.986,136.632,264.028z"/>
			<path id="XMLID_880_" style="fill:#FB4755;" d="M152.965,159.695v59.333v59.333h49.333h49.333c3.958,0,7.541-1.604,10.135-4.198
				c2.594-2.594,4.198-6.177,4.198-10.135v-52.167v-52.167h-56.5H152.965z"/>
			<path id="XMLID_879_" style="fill:#C73D54;" d="M136.632,159.695v52.167v52.167c0,3.958,1.604,7.541,4.198,10.135
				c2.594,2.594,6.177,4.198,10.135,4.198h1h1v-59.333v-59.333h-8.167H136.632z"/>
			<path id="XMLID_878_" style="fill:#78BAD1;" d="M177.965,278.361h-10.5h-10.5v-45.582v-45.582c0-2.899,1.175-5.524,3.075-7.425
				c1.9-1.9,4.525-3.075,7.425-3.075h0l0,0c2.899,0,5.524,1.175,7.425,3.075c1.9,1.9,3.075,4.525,3.075,7.425v45.582V278.361z"/>
			<path id="XMLID_877_" style="fill:#78BAD1;" d="M211.465,278.361h-10.5h-10.5v-45.582v-45.582c0-2.899,1.175-5.524,3.075-7.425
				c1.9-1.9,4.525-3.075,7.425-3.075h0l0,0c2.899,0,5.524,1.175,7.425,3.075c1.9,1.9,3.075,4.525,3.075,7.425v45.582V278.361z"/>
			<path id="XMLID_876_" style="fill:#78BAD1;" d="M243.965,278.361h-10.5h-10.5v-45.582v-45.582c0-2.899,1.175-5.524,3.075-7.425
				c1.9-1.9,4.525-3.075,7.425-3.075h0l0,0c2.899,0,5.524,1.175,7.425,3.075c1.9,1.9,3.075,4.525,3.075,7.425v45.582V278.361z"/>
			<path id="XMLID_875_" style="fill:#FB4755;" d="M172.632,159.695c0,4.372,1.772,8.331,4.637,11.196
				c2.865,2.865,6.824,4.637,11.196,4.637s8.331-1.772,11.196-4.637c2.865-2.865,4.637-6.824,4.637-11.196
				s-1.772-8.331-4.637-11.196c-2.865-2.865-6.824-4.637-11.196-4.637s-8.331,1.772-11.196,4.637S172.632,155.322,172.632,159.695z"
				/>
			<path id="XMLID_874_" style="fill:#FB4755;" d="M228.132,161.278c0,3.935,1.595,7.498,4.174,10.076
				c2.579,2.579,6.141,4.174,10.076,4.174s7.498-1.595,10.076-4.174c2.579-2.579,4.174-6.141,4.174-10.076
				s-1.595-7.498-4.174-10.076c-2.579-2.579-6.141-4.174-10.076-4.174s-7.498,1.595-10.076,4.174
				C229.727,153.78,228.132,157.343,228.132,161.278z"/>
			<path id="XMLID_873_" style="fill:#FB4755;" d="M202.21,162.396c0,3.626,1.47,6.909,3.846,9.285s5.659,3.846,9.285,3.846
				s6.909-1.47,9.285-3.846s3.846-5.659,3.846-9.285s-1.47-6.909-3.846-9.285s-5.659-3.846-9.285-3.846s-6.909,1.47-9.285,3.846
				S202.21,158.77,202.21,162.396z"/>
			<path id="XMLID_872_" style="fill:#FB4755;" d="M168.905,130.73c0,2.502,1.014,4.767,2.654,6.407
				c1.64,1.64,3.905,2.654,6.407,2.654c2.502,0,4.767-1.014,6.407-2.654c1.64-1.64,2.654-3.905,2.654-6.407
				c0-2.502-1.014-4.767-2.654-6.407c-1.64-1.64-3.905-2.654-6.407-2.654c-2.502,0-4.767,1.014-6.407,2.654
				C169.919,125.963,168.905,128.228,168.905,130.73z"/>
			<path id="XMLID_871_" style="fill:#FB4755;" d="M206.281,136.696c0,2.502,1.014,4.767,2.654,6.407
				c1.64,1.64,3.905,2.654,6.407,2.654c2.502,0,4.767-1.014,6.407-2.654c1.64-1.64,2.654-3.905,2.654-6.407
				c0-2.502-1.014-4.767-2.654-6.407c-1.64-1.64-3.905-2.654-6.407-2.654c-2.502,0-4.767,1.014-6.407,2.654
				C207.295,131.929,206.281,134.194,206.281,136.696z"/>
			<path id="XMLID_870_" style="fill:#FB4755;" d="M238.511,121.669c0,2.502,1.014,4.767,2.654,6.407
				c1.64,1.64,3.905,2.654,6.407,2.654c2.502,0,4.767-1.014,6.407-2.654c1.64-1.64,2.654-3.905,2.654-6.407
				s-1.014-4.767-2.654-6.407c-1.64-1.64-3.905-2.654-6.407-2.654c-2.502,0-4.767,1.014-6.407,2.654
				C239.525,116.902,238.511,119.167,238.511,121.669z"/>
			<path id="XMLID_869_" style="fill:#FB4755;" d="M151.702,162.396c0,3.626,1.47,6.909,3.846,9.285
				c2.376,2.376,5.659,3.846,9.285,3.846c3.626,0,6.909-1.47,9.285-3.846c2.376-2.376,3.846-5.659,3.846-9.285
				s-1.47-6.909-3.846-9.285c-2.376-2.376-5.659-3.846-9.285-3.846c-3.626,0-6.909,1.47-9.285,3.846
				C153.172,155.487,151.702,158.77,151.702,162.396z"/>
			<path id="XMLID_868_" style="fill:#204660;" d="M265.962,313.833v2.21v2.21h-62.25h-62.25v-2.21v-2.21
				c0-5.895,2.39-11.23,6.254-15.091c3.864-3.861,9.201-6.249,15.096-6.249h40.905h40.905c5.895,0,11.23,2.387,15.091,6.249
				C263.574,302.603,265.962,307.938,265.962,313.833z"/>
			<path id="XMLID_867_" style="fill:#245073;" d="M265.962,313.833v2.21v2.21h-49.25h-49.25v-2.21v-2.21
				c0-5.895,2.39-11.23,6.254-15.091c3.864-3.861,9.201-6.249,15.096-6.249h27.905h27.905c5.895,0,11.23,2.387,15.091,6.249
				C263.574,302.603,265.962,307.938,265.962,313.833z"/>
			<path id="XMLID_866_" style="fill:#7DB7D1;" d="M277.832,432.363h-74.115h-74.115c-3.88,0-7.351-1.648-9.782-4.263
				c-2.43-2.615-3.82-6.198-3.536-10.068l3.019-41.129l3.019-41.129c0.555-7.555,4.243-14.267,9.848-19.091
				c5.605-4.824,13.127-7.759,21.352-7.759h50.195h50.195c8.225,0,15.747,2.935,21.353,7.759c5.605,4.824,9.292,11.536,9.848,19.091
				l3.019,41.129l3.019,41.129c0.284,3.87-1.105,7.452-3.536,10.068C285.183,430.715,281.712,432.363,277.832,432.363z"/>
			<path id="XMLID_865_" style="fill:#95D8FD;" d="M277.832,432.363h-66.425h-66.425l3.545-48.295l3.545-48.295
				c0.555-7.555,4.243-14.267,9.848-19.091c5.605-4.824,13.127-7.759,21.352-7.759h35.32h35.32c8.225,0,15.747,2.935,21.353,7.759
				c5.605,4.824,9.292,11.536,9.848,19.091l3.019,41.129l3.019,41.129c0.284,3.87-1.105,7.452-3.536,10.068
				C285.183,430.715,281.712,432.363,277.832,432.363z"/>
			<path id="XMLID_864_" style="fill:#204660;" d="M231.792,379.923c0,6.795-2.292,13.055-6.146,18.049
				c-3.854,4.994-9.269,8.721-15.514,10.451c-1.26,0.355-2.552,0.625-3.874,0.806c-1.321,0.181-2.671,0.274-4.046,0.274
				c-8.17,0-15.565-3.31-20.917-8.663c-5.353-5.352-8.663-12.747-8.663-20.917c0-8.17,3.31-15.565,8.663-20.918
				c5.353-5.353,12.748-8.663,20.917-8.663c1.375,0,2.725,0.092,4.046,0.274c1.321,0.181,2.614,0.451,3.874,0.806
				c6.245,1.73,11.66,5.457,15.514,10.451C229.499,366.868,231.792,373.128,231.792,379.923z"/>
			<path id="XMLID_863_" style="fill:#245073;" d="M231.792,379.923c0,6.795-2.292,13.055-6.146,18.049
				c-3.854,4.994-9.269,8.721-15.514,10.451c-6.245-1.725-11.662-5.45-15.519-10.444c-3.856-4.994-6.151-11.256-6.151-18.056
				c0-6.8,2.295-13.063,6.151-18.056s9.274-8.719,15.519-10.444c6.245,1.73,11.66,5.457,15.514,10.451
				C229.499,366.868,231.792,373.128,231.792,379.923z"/>
			<polyline id="XMLID_862_" style="fill:none;stroke:#FB80A5;stroke-width:8;stroke-linecap:round;stroke-miterlimit:10;" points="
				202.212,379.923 202.212,363.423 202.212,346.923 			"/>
		</g>
		<path id="XMLID_859_" style="fill:#95D8FD;" d="M349.222,418.78c0,0,0-0.001,0-0.001c0,0,0-0.001,0-0.001
			c-3.885-1.16-7.245-3.539-9.634-6.693s-3.805-7.084-3.805-11.347v-62.064v-62.064h6.25h6.25v-10.925V254.76h-10h-10v79.08v79.08
			c0,5.2,2.107,9.91,5.515,13.32s8.115,5.52,13.315,5.52h10h10c-4.175,0-8.035-1.363-11.158-3.666S350.447,422.545,349.222,418.78z"
			/>
		<path id="XMLID_858_" style="fill:#D0F4FA;" d="M348.282,254.76v10.925v10.925h25.25h25.25v62.064v62.064
			c0,5.201-2.108,9.909-5.516,13.317c-3.408,3.408-8.116,5.516-13.317,5.516h-12.667h-12.667c-0.938,0-1.859-0.071-2.759-0.205
			c-0.9-0.135-1.78-0.333-2.635-0.588c0,0,0,0.001,0,0.001c0,0,0,0.001,0,0.001c1.225,3.765,3.61,7.01,6.732,9.314
			s6.983,3.666,11.158,3.666h10.17h10.17c5.2,0,9.908-2.11,13.315-5.52s5.515-8.12,5.515-13.32v-79.08v-79.08h-29H348.282z"/>
		<path id="XMLID_857_" style="fill:#C73D54;" d="M335.782,400.738c0,4.263,1.417,8.192,3.805,11.347s5.748,5.533,9.634,6.693
			c-0.305-0.92-0.54-1.872-0.698-2.85c-0.159-0.978-0.241-1.983-0.241-3.007v-68.155v-68.155h-6.25h-6.25v62.064V400.738z"/>
		<path id="XMLID_827_" style="fill:#FB4755;" d="M349.221,418.777c0.855,0.255,1.734,0.454,2.635,0.588
			c0.9,0.135,1.821,0.205,2.759,0.205h12.667h12.667c5.201,0,9.909-2.108,13.317-5.516c3.408-3.408,5.516-8.117,5.516-13.317
			v-62.064v-62.064h-25.25h-25.25v68.155v68.155c0,1.025,0.082,2.029,0.241,3.007C348.682,416.906,348.917,417.858,349.221,418.777z
			"/>
	</g>
</g>
</svg>
